<svg xmlns="http://www.w3.org/2000/svg" width="41" height="36" viewBox="0 0 55.7 49">
<!-- SVG created by Arrow, modified by Hermes Agent — recolored to sky blue -->
  <style type="text/css">.cls-0 {fill:#20a7db;}</style>
  <path class="cls-0" d="m54 0.9c-0.1-0.1-0.3-0.2-0.4-0.1l-0.9 1.9c-2.3 3.8-5.7 6.8-10.1 9.4-2.7 2.3-7.3 3.7-11.4 5.3-3.6 1.4-7 2.7-9.9 4.3-3.1 1.8-5.8 3.8-8.1 6.5-0.8 1-2.3 3.1-2.8 4-2.1 4.1-3.3 10.1-6 13.3-1.5 1.7-2.9 1.9-3.3 2.2-0.2 0.2-0.1 0.5 0.8 0.5 1.3 0.1 2.8 0.1 4.5-0.5 3.4-1.1 6.8-4.3 8.9-8.4 1.8-3.4 2.9-6.4 5.7-8.8 3.4-2.8 7.4-4.3 12-5.8 6.2-2 10.7-3.4 13.8-5.6 2.7-1.8 5.2-4.6 6.5-7.8 1.1-2.7 1.8-6.1 0.9-10.2l-0.2-0.2z"/>
  <path class="cls-0" d="m47.3 20.6c-4.2 2.4-8.4 3.6-13 4.9-4.9 1.4-8 2.4-11.3 4.7-2.1 1.5-4.2 3.7-5.6 6.7-0.1 0.6 0.2 0.5 0.5 0.2 0.9-0.6 1.6-1.2 2.6-1.7 3.4-1.7 6.1-2.4 10.6-3 3.5-0.4 6.7-0.8 9.3-1.6 2.6-0.7 5.5-2.2 7.5-4.2s3.6-4.6 4.1-8.6c0-0.5-0.3-0.8-0.5-0.5-1.2 1.1-2.8 2.3-4.2 3.1z"/>
  <path class="cls-0" d="m16.7 40.2c2.3-0.5 3.4-0.8 5.7-0.8 1.4 0 3.5 0.1 5 0.3 1.5 0.1 2.8 0.3 4.5 0.3 3.2 0 5.7-0.4 7.9-1.3 1.3-0.5 3.4-1.6 4.9-3.2s2.5-3.3 2.9-4.6c0.1-0.7-0.2-0.9-0.3-0.9l-0.7 0.3c-2.6 1.3-4 1.8-6.3 2.3-3 0.7-5.1 0.9-7.3 1.1-4.6 0.4-9.5 0.6-13.4 3.6-1.2 0.9-1.9 1.6-2.9 2.9z"/>
  <path class="cls-0" d="m38.9 41.1c-0.5 0.1-2.6 0.7-5.4 0.7-1.9 0-4.3-0.2-5.8-0.4-1.7-0.2-3.3-0.6-6.1-0.7-2.6 0-6.5 0.3-9.1 3.6v0.2c1.2-0.3 2.2-0.6 3.5-0.6 2.7 0 4.6 0.9 7.8 1.9 1.8 0.5 3.2 0.9 5.3 0.9 3.2 0 5.1-0.7 6.4-1.3 1.8-0.9 3.2-2.2 4-3.5 0.5-0.7 0.5-1 0.2-1l-0.8 0.2z"/>
</svg>
