<svg xmlns="http://www.w3.org/2000/svg" width="507" height="515" fill="none" viewBox="0 0 507 515">
  <path fill="#20A7DB" fill-rule="evenodd" d="M231.833.629c-7.262.542-18.205 2.222-32.999 5.065-9.788 1.882-17.753 4.333-32.239 9.922-30.511 11.773-45.823 19.835-63.261 33.31a786.562 786.562 0 0 1-11 8.314c-8.075 5.967-31.673 30.057-38.465 39.266-27.541 37.345-42.234 70.003-49.724 110.526-5.478 29.641-5.729 65.478.465 95 3.433 16.367 9.597 37.345 14.25 48.5 2.505 6.004 13.08 27.372 16.086 32.5 6.03 10.29 24.888 33 24.888 33 .132 0 0-81 0-81l-4.105-10.876s-11.887-43.658-11.803-72.624c.072-24.884 1.4-35.201 7.084-55 5.42-18.878 16.786-43.827 26.65-58.5 11.493-17.093 36.344-42.607 54.767-56.227 17.592-13.006 40.176-24.483 58.907-29.936 8.552-2.49 31.593-6.453 46-7.912 20.694-2.095 49.999.655 74.827 7.022 19.169 4.915 42.152 15.788 58.177 27.523 3.028 2.216 7.501 5.38 9.941 7.03 5.254 3.552 33.255 31.041 38.2 37.5 24.713 32.283 37.386 62.06 43.41 102 1.924 12.756 1.884 43.174-.075 56.872-1.924 13.452-14.403 51.128-14.403 51.128v36l-.077 46 7.02-6.5s14.494-19.661 19.157-29.148c10.221-16.762 20.166-40.744 25.245-60.878 13.29-52.675 9.587-107.57-9.109-158.474-3.578-9.742-14.439-32.254-16.925-35.079-7.312-11.921-16.168-25.15-25.748-36.421-8.992-10.58-25.44-26.271-34.589-33-4.487-3.3-10.318-7.673-12.957-9.718-5.334-4.132-21.77-14.077-30.76-18.611-4.773-2.408-32.406-13.623-42.334-17.181-4.536-1.626-10.807-3.031-27.252-6.106-14.546-2.72-17.08-3.606-37.671-3.884-12.65-.171-26.828.392-29.578.597Zm-53.499 214.903v298.5h57.077v-332l-57.077 33.5Zm92 298.5h57l1.077-298.5-58-33.5s-.077 221.333-.077 332Zm-176.923-250v250h49.943l.057-279s-39.255 22.694-50 29Zm269 250h50v-250l-50-29c-.53 92.995 0 186.003 0 279Z" clip-rule="evenodd"/>
  <path stroke="#000" stroke-opacity=".2" stroke-width="2" d="M411.41 264.606v248.425h-48c-.004-92.096-.52-184.185-.009-276.269l48.009 27.844Zm-84.003-48.499-1.069 296.924h-55.004c0-55.329.019-137.748.038-206.499l.026-88.187.009-26.586.003-7.214v-.781l55.997 32.343ZM234.41 513.031h-55.076V216.104l55.076-32.326v329.253Zm-92-275.19-.002 7.969-.006 28.668-.017 88.992-.031 149.561H94.41V264.606c5.612-3.288 17.702-10.302 28.531-16.574 5.578-3.23 10.821-6.264 14.668-8.49l4.594-2.657.207-.12v1.076ZM231.908 1.626c2.717-.202 16.864-.764 29.489-.594 20.511.277 22.983 1.152 37.5 3.866 15.438 2.887 21.84 4.29 26.243 5.768l.856.297c9.919 3.555 37.504 14.753 42.221 17.133 8.958 4.517 25.333 14.43 30.598 18.509 2.649 2.052 8.487 6.43 12.977 9.732 9.075 6.674 25.467 22.31 34.42 32.843 9.533 11.215 18.359 24.395 25.658 36.296l.045.073.057.064c.244.277.644.866 1.186 1.772a82.02 82.02 0 0 1 1.873 3.343c1.415 2.643 3.111 6.014 4.844 9.605 3.47 7.192 7.062 15.219 8.834 20.043 18.63 50.726 22.316 105.416 9.078 157.885-5.056 20.042-14.964 43.931-25.13 60.602l-.023.038-.02.041c-2.294 4.668-7.042 11.898-11.254 18.006a487.96 487.96 0 0 1-7.182 10.131l-.467.638-.106.143-5.268 4.878.073-43.705v-35.839l.091-.276c.092-.28.228-.692.4-1.221a941.882 941.882 0 0 0 5.947-18.895c3.354-11.081 6.981-23.941 7.956-30.757.989-6.92 1.489-18.004 1.504-28.929.014-10.921-.457-21.777-1.431-28.233-6.049-40.108-18.79-70.043-43.605-102.459-2.524-3.298-10.819-11.84-19.077-19.946-4.142-4.067-8.297-8.046-11.748-11.232-3.424-3.162-6.219-5.604-7.608-6.543-2.427-1.641-6.891-4.798-9.911-7.009-16.128-11.81-39.226-22.738-58.519-27.684-24.916-6.39-54.342-9.157-75.177-7.048-14.435 1.462-37.543 5.432-46.178 7.946-18.268 5.318-40.132 16.31-57.55 28.872l-1.672 1.221c-18.505 13.68-43.438 39.275-55 56.473-9.93 14.768-21.337 39.815-26.783 58.782-5.713 19.904-7.051 30.315-7.123 55.272-.043 14.59 2.926 32.83 5.89 47.377a482.604 482.604 0 0 0 4.085 18.214 398.446 398.446 0 0 0 1.728 6.797l.1.374c.01.042.02.074.026.096l.007.024v.006l.002.002.012.046.017.045 4.041 10.705v.052l.001.677.004 2.571.014 9.175c.01 7.594.023 17.719.03 27.843.01 10.125.013 20.25.007 27.843a3401.19 3401.19 0 0 1-.018 9.172l-.005.732c-.38-.465-.818-.997-1.299-1.588a669.662 669.662 0 0 1-7.13-8.919c-5.475-6.972-11.654-15.169-14.63-20.246-2.98-5.085-13.537-26.413-16.025-32.38-4.622-11.079-10.77-31.993-14.195-48.32-6.164-29.38-5.917-65.085-.46-94.612 7.46-40.356 22.083-72.876 49.546-110.114 3.35-4.542 10.902-12.823 18.66-20.744 7.764-7.925 15.63-15.383 19.594-18.312 3.03-2.24 7.987-5.986 11.017-8.327 17.334-13.395 32.55-21.415 63.009-33.168 14.458-5.578 22.362-8.007 32.068-9.873 14.788-2.842 25.685-4.513 32.886-5.05Z"/>
</svg>
